<svg width="41" height="41" viewBox="0 0 41 41" fill="none" xmlns="http://www.w3.org/2000/svg">
<g clip-path="url(#clip0_370_125)">
<rect width="41" height="41" rx="20.5" fill="white"/>
<path d="M20.5 41C31.8218 41 41 31.8218 41 20.5C41 9.17816 31.8218 0 20.5 0C9.17816 0 0 9.17816 0 20.5C0 31.8218 9.17816 41 20.5 41Z" fill="white" fill-opacity="0.78"/>
<path d="M13.4531 31.5674L17.8952 29.2458V13.767L24.24 17.3263L19.4814 19.803V24.9113L30.1094 32.0312V27.233L23.6057 22.7448L28.9985 19.958V15.0047L17.8952 8.96875L13.4531 11.2904V31.5674Z" fill="url(#paint0_linear_370_125)" fill-opacity="0.78"/>
</g>
<rect x="0.5" y="0.5" width="40" height="40" rx="20" stroke="black" stroke-opacity="0.25"/>
<defs>
<linearGradient id="paint0_linear_370_125" x1="13.4531" y1="20.5" x2="30.1094" y2="20.5" gradientUnits="userSpaceOnUse">
<stop stop-color="#1B197B"/>
<stop offset="1" stop-color="#FF0000"/>
</linearGradient>
<clipPath id="clip0_370_125">
<rect width="41" height="41" rx="20.5" fill="white"/>
</clipPath>
</defs>
</svg>
